<?xml version="1.0" encoding="utf-8"?>
<!-- Generator: Adobe Illustrator 16.0.5, SVG Export Plug-In . SVG Version: 6.00 Build 0)  -->
<!DOCTYPE svg PUBLIC "-//W3C//DTD SVG 1.0//EN" "http://www.w3.org/TR/2001/REC-SVG-20010904/DTD/svg10.dtd">
<svg version="1.0" id="Layer_1" xmlns="http://www.w3.org/2000/svg" xmlns:xlink="http://www.w3.org/1999/xlink" x="0px" y="0px"
	 viewBox="0 0 32.678 33.561" enable-background="new 0 0 32.678 33.561" xml:space="preserve">
<g>
	<path fill="#20BDBE" d="M12.301,16.646c1.798,0,3.261-1.463,3.261-3.261V3.261C15.562,1.463,14.099,0,12.301,0h-9.04
		C1.462,0,0,1.463,0,3.261v10.124c0,1.798,1.462,3.261,3.261,3.261H12.301z M0.737,13.385V3.261c0-1.393,1.132-2.524,2.524-2.524
		h9.04c1.392,0,2.525,1.132,2.525,2.524v10.124c0,1.393-1.133,2.524-2.525,2.524h-9.04C1.869,15.91,0.737,14.778,0.737,13.385z"/>
	<path fill="#20BDBE" d="M10.94,5.887H8.099V4.296c0-0.156-0.127-0.283-0.284-0.283c-0.156,0-0.283,0.127-0.283,0.283v1.591H4.622
		c-0.156,0-0.283,0.128-0.283,0.284s0.126,0.283,0.283,0.283h0.886c0.132,0.485,0.576,1.767,1.914,3.567
		c-0.546,0.703-1.181,1.419-1.89,2.127c-0.11,0.111-0.11,0.291,0,0.401c0.053,0.053,0.125,0.083,0.2,0.083
		c0.076,0,0.149-0.031,0.201-0.083c0.684-0.684,1.304-1.376,1.848-2.062c0.543,0.686,1.165,1.378,1.848,2.062
		c0.053,0.053,0.125,0.083,0.2,0.083c0.077,0,0.148-0.03,0.2-0.083c0.11-0.11,0.11-0.29,0-0.402
		c-0.708-0.708-1.343-1.422-1.89-2.127c1.336-1.795,1.782-3.081,1.914-3.567h0.887c0.156,0,0.283-0.127,0.283-0.283
		S11.096,5.887,10.94,5.887z M7.781,9.545C6.708,8.068,6.27,6.986,6.102,6.455h3.359C9.292,6.986,8.854,8.068,7.781,9.545z"/>
	<path fill="#20BDBE" d="M4.622,6.31h0.999c0.092,0.392,0.497,1.739,1.982,3.713c-0.519,0.677-1.165,1.424-1.968,2.228
		c-0.055,0.055-0.055,0.143,0,0.197c0.027,0.028,0.062,0.041,0.098,0.041c0.036,0,0.071-0.013,0.098-0.041
		c0.791-0.79,1.431-1.525,1.95-2.193c0.52,0.668,1.159,1.403,1.95,2.193c0.027,0.028,0.062,0.041,0.098,0.041
		c0.036,0,0.071-0.013,0.098-0.041c0.054-0.054,0.054-0.142,0-0.197c-0.804-0.804-1.45-1.551-1.97-2.228
		C9.444,8.049,9.848,6.702,9.941,6.31h1c0.077,0,0.138-0.062,0.138-0.139c0-0.077-0.061-0.14-0.138-0.14H7.955V4.296
		c0-0.076-0.062-0.138-0.139-0.138c-0.076,0-0.138,0.062-0.138,0.138v1.736H4.622c-0.076,0-0.138,0.062-0.138,0.14
		C4.484,6.248,4.546,6.31,4.622,6.31z M9.654,6.31C9.539,6.738,9.114,7.997,7.781,9.79C6.449,7.997,6.024,6.738,5.909,6.31H9.654z"
		/>
	<path fill="#20BDBE" d="M29.417,16.913h-9.04c-1.797,0-3.26,1.463-3.26,3.261v10.125c0,1.799,1.463,3.262,3.26,3.262h9.04
		c1.798,0,3.262-1.463,3.262-3.262V20.174C32.678,18.376,31.214,16.913,29.417,16.913z M31.942,30.299
		c0,1.393-1.133,2.524-2.525,2.524h-9.04c-1.393,0-2.524-1.132-2.524-2.524V20.174c0-1.393,1.132-2.524,2.524-2.524h9.04
		c1.393,0,2.525,1.132,2.525,2.524V30.299z"/>
	<path fill="#20BDBE" d="M24.592,21.453l-2.863,7.566h0.67l0.779-2.126h3.436l0.785,2.126h0.665l-2.863-7.566H24.592z
		 M23.376,26.354l1.518-4.121l1.518,4.121H23.376z"/>
	<path fill="#20BDBE" d="M26.263,15.418l-2.322-1.987c-0.151-0.129-0.379-0.111-0.51,0.04c-0.13,0.152-0.111,0.38,0.04,0.509
		l2.851,2.438c0.01,0.008,0.021,0.011,0.03,0.018c0.017,0.011,0.034,0.021,0.051,0.03c0.025,0.012,0.051,0.02,0.077,0.026
		c0.012,0.002,0.021,0.009,0.032,0.01c0.014,0.002,0.029,0.003,0.044,0.003c0.001,0,0.001,0,0.001,0l0,0
		c0.077,0,0.147-0.028,0.206-0.071c0.005-0.002,0.011-0.001,0.015-0.004l2.842-2.201c0.158-0.123,0.188-0.35,0.065-0.507
		c-0.123-0.159-0.35-0.186-0.507-0.064l-2.184,1.691c0.793-10.603-9.602-12.426-9.71-12.444c-0.192-0.032-0.381,0.102-0.413,0.299
		c-0.032,0.196,0.1,0.382,0.297,0.415C17.583,3.686,27.098,5.374,26.263,15.418z"/>
	<path fill="#20BDBE" d="M15.328,30.769c-0.416-0.067-9.931-1.757-9.095-11.8l2.322,1.987c0.152,0.128,0.38,0.111,0.509-0.039
		c0.13-0.153,0.112-0.381-0.04-0.511l-2.851-2.438c-0.009-0.007-0.021-0.01-0.03-0.017c-0.017-0.012-0.034-0.021-0.051-0.03
		c-0.025-0.012-0.05-0.02-0.077-0.026c-0.011-0.002-0.021-0.009-0.032-0.01c-0.015-0.001-0.03-0.003-0.044-0.003c0,0,0,0,0,0h0
		c-0.078,0-0.147,0.028-0.207,0.07c-0.004,0.003-0.01,0.001-0.014,0.005l-2.842,2.202c-0.158,0.122-0.187,0.35-0.065,0.508
		c0.123,0.157,0.351,0.186,0.507,0.064l2.184-1.691c-0.792,10.603,9.602,12.426,9.71,12.443c0.192,0.032,0.382-0.101,0.414-0.298
		S15.524,30.802,15.328,30.769z"/>
</g>
</svg>
