<?xml version="1.0" encoding="utf-8"?>
<!-- Generator: Adobe Illustrator 16.0.5, SVG Export Plug-In . SVG Version: 6.00 Build 0)  -->
<!DOCTYPE svg PUBLIC "-//W3C//DTD SVG 1.0//EN" "http://www.w3.org/TR/2001/REC-SVG-20010904/DTD/svg10.dtd">
<svg version="1.0" id="Capa_1" xmlns="http://www.w3.org/2000/svg" xmlns:xlink="http://www.w3.org/1999/xlink" x="0px" y="0px"
	 viewBox="0 3.864 50 40.606" enable-background="new 0 3.864 50 40.606" xml:space="preserve">
<g>
	<path fill="#20BDBE" d="M46.211,8.107h-0.772c0.102-0.074,0.167-0.172,0.167-0.303V4.167c0-0.151-0.303-0.303-0.758-0.303
		c-0.453,0-0.758,0.152-0.758,0.303v3.788c0,0.054,0.05,0.105,0.119,0.152H5.59c0.102-0.074,0.167-0.172,0.167-0.303V4.167
		c0-0.151-0.303-0.303-0.758-0.303S4.242,4.016,4.242,4.167v3.636c0,0.131,0.066,0.229,0.167,0.303H3.788
		C1.666,8.107,0,9.773,0,11.895v28.789c0,2.121,1.667,3.787,3.788,3.787h42.423c2.123,0,3.789-1.666,3.789-3.787V11.895
		C50,9.773,48.334,8.107,46.211,8.107z M48.484,40.684c0,1.211-1.061,2.271-2.273,2.271H3.788c-1.212,0-2.273-1.061-2.273-2.271
		V11.895c0-1.212,1.061-2.272,2.273-2.272h42.423c1.213,0,2.273,1.061,2.273,2.272V40.684z"/>
	<path fill="#20BDBE" d="M43.787,39.471H6.363V13.258c0-0.454-0.455-0.757-1.061-0.757c-0.606,0-1.061,0.454-1.061,0.757v26.818
		c0.152,0.607,0.455,0.91,1.061,0.91h38.484c0.607,0,1.061-0.303,1.061-0.758S44.395,39.471,43.787,39.471z"/>
	<path fill="#20BDBE" d="M11.06,29.168h13.03c0.455,0,0.758-0.303,0.758-0.455c0-0.303-0.303-0.455-0.758-0.455H11.06
		c-0.455-0.15-0.757,0.152-0.757,0.455S10.605,29.168,11.06,29.168z"/>
	<path fill="#20BDBE" d="M24.848,31.592c0-0.303-0.303-0.455-0.758-0.455h-8.03c-0.455,0-0.757,0.303-0.757,0.455
		s0.455,0.455,0.757,0.455h8.03C24.545,32.047,24.848,31.744,24.848,31.592z"/>
	<path fill="#20BDBE" d="M23.636,33.41c0,0.455,0.304,0.455,0.758,0.455h7.728c0.455,0,0.758-0.303,0.758-0.455
		c0-0.303-0.303-0.455-0.758-0.455h-7.728C23.939,32.955,23.636,33.258,23.636,33.41z"/>
	<path fill="#20BDBE" d="M31.818,35.684c0,0.15,0.303,0.453,0.758,0.453h7.574c0.455,0,0.758-0.303,0.758-0.453
		c0-0.152-0.303-0.455-0.758-0.455h-7.574C32.121,35.229,31.818,35.531,31.818,35.684z"/>
</g>
<g>
	<g>
		<path fill="#20BDBE" d="M33.193,25c-0.084,0-0.164-0.033-0.223-0.092c-0.064-0.064-0.098-0.152-0.092-0.242l0.189-3.198
			c0.004-0.077,0.037-0.149,0.092-0.204l9.531-9.532c0.059-0.06,0.139-0.093,0.223-0.093l0,0c0.084,0,0.164,0.033,0.223,0.093
			l3.01,3.009c0.059,0.059,0.092,0.139,0.092,0.223s-0.033,0.164-0.092,0.223l-9.533,9.533c-0.055,0.055-0.127,0.088-0.205,0.092
			l-3.197,0.188C33.205,25,33.199,25,33.193,25L33.193,25z M33.689,21.624l-0.16,2.726l2.723-0.16l9.225-9.227l-2.562-2.563
			L33.689,21.624L33.689,21.624z"/>
	</g>
	<g>
		<path fill="#20BDBE" d="M44.227,16.672c-0.08,0-0.162-0.03-0.223-0.092l-2.705-2.705c-0.123-0.123-0.123-0.322,0-0.445
			s0.322-0.123,0.445,0l2.705,2.705c0.123,0.123,0.123,0.322,0,0.445C44.387,16.642,44.307,16.672,44.227,16.672L44.227,16.672z"/>
	</g>
	<g>
		<path fill="#20BDBE" d="M35.385,22.809c-0.082,0-0.162-0.03-0.223-0.092c-0.123-0.123-0.123-0.322,0-0.445l7.441-7.441
			c0.123-0.123,0.322-0.123,0.445,0s0.123,0.322,0,0.445l-7.441,7.441C35.545,22.778,35.465,22.809,35.385,22.809L35.385,22.809z"/>
	</g>
	<path fill="#20BDBE" d="M33.549,23.119c-0.043,0-0.086,0.002-0.131,0.006c-0.041,0.004-0.078,0.018-0.117,0.023l-0.092,1.553
		l1.488-0.092c0.012-0.055,0.027-0.111,0.035-0.172C34.799,23.684,34.279,23.119,33.549,23.119L33.549,23.119z"/>
</g>
</svg>
