<?xml version="1.0" encoding="utf-8"?>
<!-- Generator: Adobe Illustrator 16.0.5, SVG Export Plug-In . SVG Version: 6.00 Build 0)  -->
<!DOCTYPE svg PUBLIC "-//W3C//DTD SVG 1.0//EN" "http://www.w3.org/TR/2001/REC-SVG-20010904/DTD/svg10.dtd">
<svg version="1.0" id="Layer_1" xmlns="http://www.w3.org/2000/svg" xmlns:xlink="http://www.w3.org/1999/xlink" x="0px" y="0px"
	viewBox="0 0 32.168 43.406" enable-background="new 0 0 32.168 43.406" xml:space="preserve">
<polyline fill="none" stroke="#20BDBE" stroke-linecap="round" stroke-linejoin="round" stroke-miterlimit="10" points="
	25.084,2.764 31.668,2.764 31.668,42.904 0.5,42.904 0.5,2.764 7.251,2.764 "/>
<rect x="7.542" y="0.514" fill="none" stroke="#20BDBE" stroke-width="1.028" stroke-linecap="round" stroke-linejoin="round" stroke-miterlimit="10" width="17.084" height="4.5"/>
<g>
	<g>
		<path fill="#20BDBE" d="M9.063,16.251c-1.555,0-2.82-1.437-2.82-3.201c0-1.766,1.266-3.202,2.82-3.202
			c1.556,0,2.82,1.436,2.82,3.202C11.883,14.814,10.619,16.251,9.063,16.251L9.063,16.251z M9.063,10.504
			c-1.193,0-2.164,1.142-2.164,2.545s0.971,2.545,2.164,2.545s2.164-1.142,2.164-2.545S10.256,10.504,9.063,10.504L9.063,10.504z"/>
	</g>
	<g>
		<path fill="#20BDBE" d="M13.807,24.375H4.209c-0.173,0-0.316-0.135-0.328-0.307l-0.212-3.096c-0.066-1.007,0.721-2.171,1.721-2.54
			c2.333-0.836,4.908-0.833,7.234-0.001c1.108,0.408,1.784,1.643,1.721,2.542l-0.21,3.094C14.124,24.24,13.98,24.375,13.807,24.375
			L13.807,24.375z M4.515,23.719h8.986l0.189-2.79c0.045-0.648-0.498-1.588-1.29-1.88c-2.179-0.78-4.603-0.781-6.787,0
			c-0.789,0.292-1.333,1.233-1.289,1.88L4.515,23.719L4.515,23.719z"/>
	</g>
</g>
<g>
	<g>
		<path fill="#20BDBE" d="M12.195,39.656c-2.786,0-5.052-2.266-5.052-5.051c0-2.787,2.266-5.053,5.052-5.053
			c1.854,0,3.577,1.043,4.452,2.674h5.473c1.309,0,2.375,1.066,2.375,2.379c0,1.18-0.885,2.189-2.059,2.346l-0.176,0.023
			l-0.123-0.125l-0.729-0.826l-0.949,1.082l-0.949-1.082l-0.814,0.928l-0.188,0.031h-1.861
			C15.772,38.613,14.049,39.656,12.195,39.656L12.195,39.656z M12.195,30.266c-2.393,0-4.339,1.947-4.339,4.34
			c0,2.391,1.946,4.338,4.339,4.338c1.683,0,3.182-0.947,3.911-2.471l0.097-0.203h2.145l1.162-1.326l0.949,1.08l0.949-1.08
			l1.113,1.268c0.729-0.182,1.26-0.844,1.26-1.605c0-0.918-0.746-1.664-1.662-1.664h-5.916l-0.097-0.203
			C15.376,31.213,13.877,30.266,12.195,30.266L12.195,30.266z"/>
	</g>
	<g>
		<path fill="#20BDBE" d="M10.856,35.971c-0.754,0-1.365-0.611-1.365-1.365s0.611-1.367,1.365-1.367
			c0.753,0,1.367,0.613,1.367,1.367S11.609,35.971,10.856,35.971L10.856,35.971z M10.856,33.951c-0.359,0-0.653,0.293-0.653,0.654
			c0,0.359,0.294,0.652,0.653,0.652c0.36,0,0.654-0.293,0.654-0.652C11.51,34.244,11.216,33.951,10.856,33.951L10.856,33.951z"/>
	</g>
</g>
<line fill="#35424B" stroke="#20BDBE" stroke-width="0.9692" stroke-linecap="round" stroke-miterlimit="10" x1="18.168" y1="13.92" x2="28.828" y2="13.92"/>
<line fill="#35424B" stroke="#20BDBE" stroke-width="0.9692" stroke-linecap="round" stroke-miterlimit="10" x1="18.168" y1="17.807" x2="28.828" y2="17.807"/>
<line fill="#35424B" stroke="#20BDBE" stroke-width="0.9692" stroke-linecap="round" stroke-miterlimit="10" x1="18.168" y1="21.694" x2="28.828" y2="21.694"/>
</svg>
