<?xml version="1.0" encoding="utf-8"?>
<!-- Generator: Adobe Illustrator 16.0.5, SVG Export Plug-In . SVG Version: 6.00 Build 0)  -->
<!DOCTYPE svg PUBLIC "-//W3C//DTD SVG 1.0//EN" "http://www.w3.org/TR/2001/REC-SVG-20010904/DTD/svg10.dtd">
<svg version="1.0" id="Layer_1" xmlns="http://www.w3.org/2000/svg" xmlns:xlink="http://www.w3.org/1999/xlink" x="0px" y="0px"
	  viewBox="0 0 32.586 33.019" enable-background="new 0 0 32.586 33.019" xml:space="preserve">
<rect x="4.002" y="0.396" fill="none" stroke="#20BDBE" stroke-width="0.7919" stroke-linecap="round" stroke-linejoin="round" stroke-miterlimit="10" width="28.188" height="27.914"/>
<line fill="#35424B" stroke="#20BDBE" stroke-width="0.7919" stroke-miterlimit="10" x1="4.002" y1="6.747" x2="32.191" y2="6.747"/>
<line fill="#35424B" stroke="#20BDBE" stroke-width="0.7919" stroke-linecap="round" stroke-miterlimit="10" x1="6.979" y1="14.648" x2="15.689" y2="14.648"/>
<line fill="#35424B" stroke="#20BDBE" stroke-width="0.7919" stroke-linecap="round" stroke-miterlimit="10" x1="6.979" y1="17.825" x2="15.689" y2="17.825"/>
<line fill="#35424B" stroke="#20BDBE" stroke-width="0.7919" stroke-linecap="round" stroke-miterlimit="10" x1="6.979" y1="21" x2="15.689" y2="21"/>
<circle fill="#20BDBE" cx="6.979" cy="3.579" r="1.089"/>
<circle fill="#20BDBE" cx="10.79" cy="3.579" r="1.089"/>
<circle fill="#20BDBE" cx="14.6" cy="3.579" r="1.089"/>
<polyline fill="none" stroke="#20BDBE" stroke-width="0.7917" stroke-linecap="round" stroke-linejoin="round" stroke-miterlimit="10" points="
	1.98,0.89 1.98,30.486 31.774,30.486 "/>
<polyline fill="none" stroke="#20BDBE" stroke-width="0.7917" stroke-linecap="round" stroke-linejoin="round" stroke-miterlimit="10" points="
	0.396,3.026 0.396,32.623 30.191,32.623 "/>
<g>
	<path fill="#20BDBE" d="M24.76,22.775h-1.138c-0.294,0-0.531-0.239-0.531-0.532v-0.737c0-0.076-0.072-0.175-0.144-0.199
		l-0.35-0.142c-0.104-0.052-0.204-0.018-0.254,0.031l-0.521,0.522c-0.199,0.199-0.553,0.199-0.752,0l-0.806-0.806
		c-0.101-0.101-0.156-0.235-0.156-0.377c0-0.143,0.056-0.276,0.156-0.377l0.521-0.52c0.054-0.053,0.071-0.176,0.039-0.243
		l-0.144-0.348c-0.03-0.086-0.129-0.156-0.204-0.156h-0.738c-0.294,0-0.532-0.239-0.532-0.533v-1.139
		c0-0.294,0.238-0.533,0.532-0.533h0.738c0.075,0,0.174-0.071,0.198-0.143l0.142-0.347c0.04-0.083,0.022-0.203-0.031-0.258
		l-0.521-0.521c-0.101-0.1-0.156-0.233-0.156-0.376s0.056-0.276,0.156-0.377l0.806-0.806c0.199-0.2,0.553-0.2,0.752,0l0.521,0.521
		c0.051,0.051,0.178,0.07,0.241,0.04l0.347-0.145c0.087-0.03,0.159-0.128,0.159-0.205v-0.736c0-0.294,0.237-0.532,0.531-0.532h1.138
		c0.296,0,0.535,0.238,0.535,0.532v0.736c0,0.077,0.07,0.175,0.142,0.199l0.348,0.144c0.105,0.05,0.205,0.018,0.256-0.033
		l0.521-0.521c0.2-0.201,0.552-0.2,0.753,0l0.806,0.807c0.101,0.1,0.155,0.233,0.155,0.376s-0.055,0.276-0.157,0.377l-0.519,0.52
		c-0.054,0.055-0.073,0.175-0.038,0.243l0.144,0.346c0.029,0.088,0.128,0.158,0.204,0.158h0.737c0.292,0,0.532,0.239,0.532,0.533
		v1.139c0,0.294-0.24,0.533-0.532,0.533h-0.737c-0.076,0-0.175,0.07-0.199,0.142l-0.144,0.348c-0.04,0.082-0.02,0.205,0.033,0.258
		l0.521,0.52c0.101,0.101,0.155,0.234,0.155,0.377c0,0.142-0.055,0.276-0.157,0.377l-0.804,0.806c-0.201,0.201-0.553,0.199-0.752,0
		l-0.521-0.521c-0.051-0.051-0.179-0.071-0.241-0.04l-0.347,0.144c-0.087,0.029-0.157,0.128-0.157,0.204v0.737
		C25.295,22.536,25.056,22.775,24.76,22.775L24.76,22.775z M22.502,20.699c0.101,0,0.198,0.021,0.281,0.062l0.317,0.131
		c0.24,0.08,0.433,0.347,0.433,0.614v0.737c0,0.048,0.039,0.088,0.089,0.088h1.138c0.05,0,0.093-0.04,0.093-0.088v-0.737
		c0-0.268,0.189-0.532,0.443-0.619l0.318-0.132c0.192-0.098,0.558-0.053,0.74,0.129l0.52,0.521c0.044,0.045,0.083,0.046,0.128,0
		l0.805-0.805c0.022-0.023,0.025-0.051,0.025-0.063s-0.003-0.04-0.024-0.062l-0.523-0.521c-0.188-0.188-0.24-0.513-0.122-0.753
		l0.132-0.319c0.078-0.239,0.345-0.432,0.614-0.432h0.737c0.048,0,0.088-0.041,0.088-0.089v-1.139c0-0.049-0.04-0.089-0.088-0.089
		h-0.737c-0.27,0-0.536-0.192-0.62-0.447l-0.131-0.318c-0.113-0.225-0.061-0.548,0.127-0.737l0.522-0.522
		c0.022-0.022,0.025-0.049,0.025-0.062s-0.003-0.04-0.024-0.062l-0.806-0.807c-0.045-0.045-0.083-0.045-0.128,0l-0.52,0.521
		c-0.184,0.182-0.522,0.238-0.754,0.122l-0.318-0.131c-0.24-0.079-0.43-0.346-0.43-0.614v-0.736c0-0.048-0.043-0.089-0.093-0.089
		h-1.138c-0.048,0-0.089,0.041-0.089,0.089v0.736c0,0.269-0.192,0.535-0.445,0.62l-0.319,0.132
		c-0.191,0.098-0.559,0.053-0.739-0.129l-0.521-0.521c-0.043-0.045-0.08-0.044-0.125,0l-0.806,0.807
		c-0.022,0.022-0.027,0.049-0.027,0.062s0.005,0.04,0.027,0.062l0.521,0.521c0.189,0.19,0.242,0.514,0.123,0.753l-0.13,0.318
		c-0.081,0.24-0.348,0.433-0.614,0.433h-0.738c-0.048,0-0.09,0.04-0.09,0.089v1.139c0,0.048,0.042,0.089,0.09,0.089h0.738
		c0.267,0,0.533,0.192,0.618,0.445l0.132,0.321c0.113,0.225,0.062,0.549-0.129,0.737l-0.521,0.521
		c-0.022,0.022-0.027,0.05-0.027,0.062s0.005,0.04,0.027,0.062l0.806,0.806c0.045,0.045,0.082,0.045,0.125,0l0.521-0.521
		C22.145,20.768,22.322,20.699,22.502,20.699L22.502,20.699z M24.192,19.513c-0.949,0-1.723-0.771-1.723-1.723
		c0-0.95,0.773-1.724,1.723-1.724c0.951,0,1.723,0.773,1.723,1.724C25.915,18.741,25.143,19.513,24.192,19.513L24.192,19.513z
		 M24.192,16.51c-0.705,0-1.279,0.574-1.279,1.28c0,0.705,0.574,1.279,1.279,1.279c0.706,0,1.28-0.574,1.28-1.279
		C25.472,17.084,24.898,16.51,24.192,16.51L24.192,16.51z"/>
</g>
</svg>
