<?xml version="1.0" encoding="utf-8"?>
<!-- Generator: Adobe Illustrator 16.0.5, SVG Export Plug-In . SVG Version: 6.00 Build 0)  -->
<!DOCTYPE svg PUBLIC "-//W3C//DTD SVG 1.0//EN" "http://www.w3.org/TR/2001/REC-SVG-20010904/DTD/svg10.dtd">
<svg version="1.0" id="Layer_1" xmlns="http://www.w3.org/2000/svg" xmlns:xlink="http://www.w3.org/1999/xlink" x="0px" y="0px"
	 viewBox="0 0 35.628 35.837" enable-background="new 0 0 35.628 35.837" xml:space="preserve">
<g>
	<g>
		<path fill="#20BDBE" d="M23.057,26.579c-1.789,0-3.246-1.648-3.246-3.676c0-2.025,1.457-3.676,3.246-3.676
			c1.787,0,3.242,1.651,3.242,3.676C26.299,24.931,24.844,26.579,23.057,26.579L23.057,26.579z M23.057,20.073
			c-1.324,0-2.402,1.27-2.402,2.83c0,1.562,1.078,2.832,2.402,2.832c1.322,0,2.398-1.27,2.398-2.832
			C25.455,21.343,24.379,20.073,23.057,20.073L23.057,20.073z"/>
	</g>
	<g>
		<path fill="#20BDBE" d="M28.42,35.837H17.55c-0.221,0-0.405-0.172-0.421-0.393l-0.239-3.508c-0.078-1.16,0.829-2.5,1.979-2.926
			c2.654-0.949,5.582-0.947,8.229,0c1.158,0.426,2.064,1.766,1.982,2.93l-0.24,3.504C28.826,35.665,28.641,35.837,28.42,35.837
			L28.42,35.837z M17.944,34.993h10.081l0.213-3.111c0.049-0.717-0.551-1.754-1.43-2.078c-2.455-0.879-5.188-0.881-7.65,0
			c-0.873,0.324-1.474,1.363-1.426,2.078L17.944,34.993L17.944,34.993z"/>
	</g>
	<g>
		<path fill="#20BDBE" d="M28.42,35.837H17.55c-0.221,0-0.405-0.172-0.421-0.393l-0.239-3.508c-0.078-1.16,0.829-2.5,1.979-2.926
			c2.654-0.949,5.582-0.947,8.229,0c1.158,0.426,2.064,1.766,1.982,2.93l-0.24,3.504C28.826,35.665,28.641,35.837,28.42,35.837
			L28.42,35.837z M17.944,34.993h10.081l0.213-3.111c0.049-0.717-0.551-1.754-1.43-2.078c-2.455-0.879-5.188-0.881-7.65,0
			c-0.873,0.324-1.474,1.363-1.426,2.078L17.944,34.993L17.944,34.993z"/>
	</g>
	<g>
		<path fill="#20BDBE" d="M34.994,35.837h-4.328c-0.232,0-0.422-0.188-0.422-0.422c0-0.232,0.189-0.422,0.422-0.422H34.6
			l0.182-2.633c0.041-0.586-0.475-1.473-1.197-1.738c-0.992-0.355-2.035-0.543-3.098-0.562c-0.232-0.004-0.42-0.197-0.414-0.43
			c0.004-0.232,0.188-0.404,0.43-0.414c1.154,0.02,2.287,0.225,3.369,0.613c1.023,0.377,1.822,1.561,1.752,2.588l-0.207,3.027
			C35.4,35.667,35.217,35.837,34.994,35.837L34.994,35.837z"/>
	</g>
	<g>
		<path fill="#20BDBE" d="M31.664,27.47c-1.447,0-2.623-1.328-2.623-2.959s1.176-2.957,2.623-2.957c1.445,0,2.621,1.326,2.621,2.957
			S33.109,27.47,31.664,27.47L31.664,27.47z M31.664,22.397c-0.98,0-1.779,0.949-1.779,2.113c0,1.166,0.799,2.115,1.779,2.115
			s1.777-0.949,1.777-2.115C33.441,23.347,32.645,22.397,31.664,22.397L31.664,22.397z"/>
	</g>
</g>
<g>
	<path fill="#20BDBE" d="M14.125,0C6.336,0,0,6.336,0,14.125c0,7.788,6.336,14.126,14.125,14.126c2.477,0,4.805-0.646,6.83-1.771
		c-0.295-0.201-0.564-0.441-0.801-0.723c-0.873,0.453-1.801,0.818-2.776,1.068c0.725-0.672,1.378-1.564,1.942-2.633
		c-0.139-0.449-0.23-0.924-0.23-1.426c0-0.264,0.029-0.521,0.07-0.773c-1.001,2.699-2.485,4.609-4.16,5.111v-5.646
		c1.574-0.049,3.069-0.223,4.453-0.508c0.336-0.822,0.891-1.497,1.58-1.946c0.283-1.517,0.447-3.152,0.447-4.879
		c0-1.92-0.193-3.736-0.539-5.391c3.748,1.133,6.309,3.146,6.309,5.391c0,1.671-1.42,3.212-3.691,4.359
		c0.443,0.083,0.854,0.255,1.232,0.494c0.803-0.481,1.494-1.017,2.035-1.601c-0.232,0.906-0.562,1.773-0.973,2.592
		c0.236,0.316,0.441,0.66,0.592,1.043c1.145-2.04,1.805-4.387,1.805-6.888C28.25,6.336,21.914,0,14.125,0z M15,1.146
		c1.887,0.565,3.532,2.911,4.516,6.164C18.116,7.016,16.597,6.841,15,6.792V1.146z M14,1.014v5.759
		c-1.874,0.008-3.648,0.198-5.266,0.537C9.846,3.632,11.806,1.107,14,1.014z M10.872,1.425c-1.419,1.316-2.571,3.47-3.288,6.159
		c-2.689,0.717-4.843,1.869-6.159,3.288C2.61,6.249,6.249,2.61,10.872,1.425z M7.31,8.734c-0.347,1.655-0.54,3.471-0.54,5.391
		c0,1.92,0.193,3.736,0.54,5.391C3.561,18.382,1,16.37,1,14.125S3.562,9.868,7.31,8.734z M1.424,17.377
		c1.316,1.42,3.47,2.571,6.16,3.288c0.717,2.689,1.868,4.844,3.288,6.16C6.249,25.64,2.61,22.001,1.424,17.377z M14,27.237
		c-2.195-0.094-4.154-2.619-5.266-6.297c1.618,0.338,3.393,0.527,5.266,0.537V27.237z M14,20.478c-1.982-0.01-3.871-0.25-5.57-0.659
		c-0.417-1.735-0.661-3.666-0.661-5.694c0-2.028,0.243-3.959,0.661-5.694c1.699-0.41,3.587-0.648,5.569-0.658l0,0
		c0.042-0.001,0-0.001,0.042-0.001c0.3,0,0.671-0.028,0.958,0.021l0,0c1.709,0.058,3.337,0.281,4.82,0.639
		c0.418,1.735,0.66,3.666,0.66,5.694c0,2.028-0.242,3.959-0.66,5.694c-1.483,0.358-3.111,0.581-4.82,0.639 M20.666,7.584
		c-0.717-2.689-1.867-4.843-3.288-6.159c4.624,1.186,8.263,4.824,9.448,9.447C25.51,9.452,23.355,8.301,20.666,7.584z"/>
</g>
<g>
	<g>
		<g>
			<path fill="#20BDBE" d="M11.343,17.828c-0.244,0-0.466-0.087-0.622-0.243c-0.194-0.194-0.276-0.471-0.234-0.779
				c0.041-0.289,0.19-0.575,0.419-0.805l1.836-1.836c0.072-0.072,0.191-0.072,0.264,0l1.132,1.133
				c0.037,0.035,0.056,0.082,0.056,0.132s-0.019,0.097-0.056,0.132l-1.835,1.835C12.03,17.671,11.68,17.828,11.343,17.828
				L11.343,17.828z M12.875,14.562l-1.704,1.703c-0.173,0.172-0.283,0.383-0.313,0.592c-0.026,0.19,0.02,0.354,0.128,0.464
				c0.111,0.112,0.257,0.134,0.358,0.134c0.234,0,0.494-0.12,0.694-0.32l1.705-1.704L12.875,14.562L12.875,14.562z"/>
		</g>
		<g>
			<path fill="#20BDBE" d="M17.475,11.548c-0.193,0-0.373-0.074-0.509-0.21c-0.28-0.282-0.28-0.738,0-1.017l0.623-0.623
				c0.069-0.07,0.194-0.072,0.264,0l0.752,0.752c0.072,0.074,0.072,0.19,0,0.264l-0.623,0.624
				C17.846,11.474,17.667,11.548,17.475,11.548L17.475,11.548z M17.72,10.094l-0.49,0.491c-0.135,0.134-0.135,0.354,0,0.488
				c0.13,0.131,0.359,0.131,0.488,0l0.49-0.491L17.72,10.094L17.72,10.094z"/>
		</g>
		<g>
			<path fill="#20BDBE" d="M15.043,13.445c-0.047,0-0.095-0.017-0.131-0.055c-0.073-0.072-0.073-0.19,0-0.264l2.054-2.054
				c0.072-0.072,0.191-0.072,0.264,0c0.073,0.072,0.073,0.191,0,0.265l-2.054,2.053C15.14,13.429,15.092,13.445,15.043,13.445
				L15.043,13.445z"/>
		</g>
	</g>
	<g>
		<path fill="#20BDBE" d="M16.841,17.984L16.841,17.984c-0.334,0-0.648-0.13-0.884-0.364l-3.643-3.645
			c-0.745,0.151-1.525-0.081-2.062-0.617c-0.627-0.627-0.832-1.57-0.521-2.404c0.022-0.059,0.073-0.103,0.136-0.117
			c0.062-0.013,0.127,0.007,0.171,0.051l1.083,1.084l0.754-0.203l0.203-0.754l-1.083-1.083c-0.045-0.045-0.063-0.11-0.05-0.171
			c0.013-0.062,0.058-0.113,0.117-0.136c0.256-0.097,0.524-0.145,0.799-0.145c0.606,0,1.176,0.236,1.604,0.665
			c0.536,0.536,0.769,1.317,0.616,2.061l3.643,3.643c0.237,0.236,0.367,0.552,0.367,0.885c0,0.335-0.13,0.648-0.367,0.885
			C17.491,17.854,17.174,17.984,16.841,17.984L16.841,17.984z M12.374,13.584c0.049,0,0.096,0.019,0.133,0.054l3.715,3.719
			c0.165,0.164,0.386,0.256,0.62,0.256l0,0c0.235,0,0.455-0.092,0.621-0.258s0.258-0.386,0.258-0.621
			c0-0.233-0.092-0.455-0.258-0.62l-3.715-3.716c-0.048-0.047-0.066-0.115-0.05-0.179c0.165-0.647-0.025-1.34-0.496-1.81
			c-0.447-0.447-1.102-0.643-1.717-0.518l0.935,0.936c0.047,0.047,0.066,0.115,0.049,0.18l-0.258,0.962
			c-0.018,0.065-0.068,0.115-0.132,0.132l-0.964,0.26c-0.064,0.018-0.133-0.002-0.181-0.049L10,11.376
			c-0.124,0.617,0.064,1.266,0.517,1.719c0.47,0.469,1.167,0.657,1.811,0.495C12.343,13.586,12.358,13.584,12.374,13.584
			L12.374,13.584z"/>
	</g>
	<path fill="#20BDBE" d="M16.788,16.342c-0.173,0-0.312,0.138-0.312,0.311s0.139,0.312,0.312,0.312c0.172,0,0.312-0.139,0.312-0.312
		S16.959,16.342,16.788,16.342L16.788,16.342z"/>
</g>
</svg>
